<svg width="24" height="25" viewBox="0 0 24 25" fill="none" xmlns="http://www.w3.org/2000/svg">
<path d="M7.71429 24.3242C8.41071 24.3242 9 24.1099 9.53571 23.5742C10.0179 23.0921 10.2857 22.5028 10.2857 21.7528V2.89565C10.2857 2.19922 10.0179 1.60993 9.53571 1.07422C9 0.592076 8.41071 0.324219 7.71429 0.324219H2.57143C1.82143 0.324219 1.23214 0.592076 0.75 1.07422C0.214286 1.60993 0 2.19922 0 2.89565V21.7528C0 22.5028 0.214286 23.0921 0.75 23.5742C1.23214 24.1099 1.82143 24.3242 2.57143 24.3242H7.71429ZM24 21.7528C24 22.5028 23.7321 23.0921 23.25 23.5742C22.7143 24.1099 22.125 24.3242 21.4286 24.3242H16.2857C15.5357 24.3242 14.9464 24.1099 14.4643 23.5742C13.9286 23.0921 13.7143 22.5028 13.7143 21.7528V2.89565C13.7143 2.19922 13.9286 1.60993 14.4643 1.07422C14.9464 0.592076 15.5357 0.324219 16.2857 0.324219H21.4286C22.125 0.324219 22.7143 0.592076 23.25 1.07422C23.7321 1.60993 24 2.19922 24 2.89565V21.7528Z" fill="white"/>
</svg>
