<svg width="24" height="28" viewBox="0 0 24 28" fill="none" xmlns="http://www.w3.org/2000/svg">
<path d="M22.7143 11.5045C23.25 11.8259 23.625 12.308 23.8393 12.8437C24.0536 13.433 24.0536 14.0223 23.8393 14.558C23.625 15.1473 23.25 15.5759 22.7143 15.8973L3.85714 27.0402C3.32143 27.3616 2.73214 27.4687 2.14286 27.3616C1.5 27.2545 1.01786 26.9866 0.589286 26.5045C0.160714 26.0759 0 25.4866 0 24.8437V2.55804C0 1.86161 0.214286 1.27232 0.642857 0.84375C1.07143 0.415179 1.55357 0.147321 2.19643 0.0401786C2.78571 -0.0669643 3.32143 0.0401786 3.85714 0.361607L22.7143 11.5045Z" fill="white"/>
</svg>
